 <svg xmlns="http://www.w3.org/2000/svg" viewBox="0 0 97 121.25" fill="none" x="0px" y="0px"
                                width="55" height="55">
                                <path fill="#808080"
                                    d="M23.1439 14.2097C25.7213 11.6322 29.9002 11.6323 32.4777 14.2097L34.6765 16.4085L27.108 23.9769C26.0927 24.9922 26.0927 26.6385 27.108 27.6538C28.1234 28.6692 29.7696 28.6692 30.785 27.6538L38.3534 20.0854L40.3859 22.1179C40.8735 22.6055 41.1474 23.2668 41.1474 23.9564C41.1474 24.6459 40.8735 25.3072 40.3859 25.7948L25.9313 40.2494C24.9159 41.2647 23.2697 41.2647 22.2543 40.2494L14.3462 32.3412C11.7687 29.7638 11.7687 25.5849 14.3462 23.0074L23.1439 14.2097Z" />
                                <path fill="#808080"
                                    d="M68.907 54.3162C69.9224 53.3008 71.5686 53.3008 72.584 54.3162L75.7025 57.4347L67.7719 65.3653C66.7565 66.3807 66.7565 68.0269 67.7719 69.0423C68.7873 70.0576 70.4335 70.0576 71.4489 69.0423L79.3795 61.1117L81.9399 63.6721C84.5173 66.2495 84.5173 70.4284 81.9399 73.0059L73.1422 81.8036C70.5647 84.381 66.3858 84.381 63.8084 81.8036L54.4525 72.4477C53.9649 71.9601 53.691 71.2988 53.691 70.6092C53.691 69.9197 53.9649 69.2583 54.4525 68.7707L68.907 54.3162Z" />
                                <path fill="#808080"
                                    d="M56.8062 16.988C62.6624 11.1318 72.1496 11.1318 78.0059 16.988C83.8621 22.8443 83.8621 32.3314 78.0059 38.1877L76.0261 40.1674L54.8282 18.9695L56.8062 16.988Z" />
                                <path fill="#808080"
                                    d="M51.1545 22.6497L23.2667 50.5864C23.5304 50.6414 23.8007 50.7042 24.0756 50.7758C25.8457 51.2372 27.9884 52.115 29.7064 53.833C31.2456 55.3722 32.1076 57.25 32.6003 58.8823C32.9294 59.973 33.1119 61.0144 33.2131 61.8819C33.5613 61.9244 33.9342 61.9799 34.3244 62.0519C36.3082 62.4184 39.0574 63.2735 41.1603 65.3764C43.1183 67.3344 43.9946 69.8527 44.4018 71.7917L72.3492 43.8444L51.1545 22.6497Z" />
                                <path fill="#808080"
                                    d="M39.588 75.686C39.5753 75.9634 39.6066 76.2328 39.6758 76.4873C38.8223 77.213 37.7956 77.7114 36.6913 77.9316L15.9939 82.0582C15.1416 82.2281 14.2608 81.961 13.6465 81.3463C13.0322 80.7316 12.7656 79.8506 12.936 78.9984L17.0625 58.366C17.2896 57.2307 17.8107 56.1777 18.5704 55.3107C18.8338 55.3851 19.1136 55.4189 19.402 55.405L19.3976 55.4053L19.431 55.4042C19.4665 55.4033 19.5274 55.4022 19.6107 55.4023C19.7779 55.4024 20.0324 55.4073 20.3502 55.4277C20.993 55.4689 21.8569 55.5712 22.7639 55.8077C24.0312 56.138 25.2022 56.6827 26.0295 57.51C26.7663 58.2468 27.2824 59.2593 27.622 60.3847C27.9163 61.3598 28.0475 62.319 28.1019 63.0476C28.1288 63.407 28.1361 63.6981 28.1371 63.8911C28.1375 63.9874 28.1364 64.0584 28.1354 64.1003L28.1344 64.1382C28.1317 64.1943 28.1308 64.2501 28.1317 64.3055C28.1307 64.3629 28.1317 64.4209 28.1345 64.4791C28.2049 65.9104 29.4199 67.0142 30.8502 66.9487L30.8701 66.948L30.9048 66.9471L30.9925 66.9459C31.1089 66.945 31.2906 66.9462 31.5231 66.9561C31.8785 66.9711 32.3415 67.0059 32.8642 67.0809C33.0306 67.1048 33.203 67.1327 33.3799 67.1654C34.9083 67.4477 36.4544 68.0244 37.4833 69.0534C38.5123 70.0823 39.089 71.6284 39.3713 73.1568C39.5066 73.8895 39.5608 74.5451 39.5806 75.0136C39.5954 75.3621 39.5907 75.5977 39.5887 75.6666L39.588 75.686Z" />
                            </svg>